<?xml version="1.0" standalone="no"?>
<!DOCTYPE svg PUBLIC "-//W3C//DTD SVG 20010904//EN"
 "http://www.w3.org/TR/2001/REC-SVG-20010904/DTD/svg10.dtd">
<svg version="1.0" xmlns="http://www.w3.org/2000/svg"
 width="328.000000pt" height="153.000000pt" viewBox="0 0 328.000000 153.000000"
 preserveAspectRatio="xMidYMid meet">

<g transform="translate(0.000000,153.000000) scale(0.100000,-0.100000)"
fill="#000000" stroke="none">
<path d="M2525 1086 c-11 -8 -20 -39 -27 -95 -7 -52 -14 -78 -19 -69 -5 7 -9
23 -9 34 0 12 -6 26 -12 32 -7 5 -109 15 -227 21 -203 11 -216 11 -233 -7 -15
-15 -20 -45 -28 -197 -5 -99 -12 -228 -16 -286 -9 -147 -13 -144 182 -153 82
-3 181 -9 219 -12 99 -8 103 -4 123 136 l16 114 12 -49 c7 -27 21 -55 30 -62
12 -9 64 -14 158 -15 263 -5 284 -4 301 13 15 15 85 324 85 374 0 30 -98 198
-110 190 -6 -3 -7 1 -4 9 3 9 0 18 -7 20 -8 2 -105 7 -216 9 -148 4 -206 2
-218 -7z m289 -363 c28 -51 51 -91 53 -89 2 2 10 41 18 86 8 46 19 88 24 93
15 15 61 -1 61 -21 0 -9 -12 -73 -25 -142 -14 -69 -25 -126 -25 -127 0 -2 -17
-3 -37 -3 -37 0 -39 2 -83 85 -26 50 -47 80 -51 72 -4 -6 -10 -37 -14 -67 -10
-85 -13 -90 -47 -90 -35 0 -34 -18 -7 198 l14 103 35 -3 c33 -3 38 -8 84 -95z
m-538 -55 c-6 -46 -26 -244 -26 -260 0 -5 -15 -8 -32 -6 l-33 3 2 90 c1 50 4
118 8 153 l7 62 39 0 40 0 -5 -42z"/>
<path d="M317 1076 c-3 -8 -3 -17 1 -19 4 -2 2 -3 -5 -1 -6 1 -18 -5 -27 -15
-19 -20 -21 -35 -4 -25 7 4 8 3 4 -5 -4 -6 -11 -9 -15 -6 -10 5 -72 -70 -75
-90 -1 -8 -6 -18 -11 -22 -4 -4 -5 -2 0 6 5 9 4 12 -3 7 -18 -11 -15 -48 19
-211 35 -171 44 -200 67 -211 10 -4 113 -10 230 -12 l212 -4 40 85 c22 47 40
91 41 98 2 29 17 -42 24 -111 11 -109 4 -106 251 -114 115 -4 217 -5 226 -1
22 9 32 41 53 161 15 84 16 125 8 271 -5 95 -12 176 -16 180 -19 18 -418 32
-443 15 -20 -12 -66 -111 -58 -123 4 -8 3 -9 -4 -5 -7 4 -12 3 -12 -1 0 -5 -6
-17 -13 -28 -12 -16 -15 -7 -26 75 -8 66 -17 97 -29 106 -26 20 -428 20 -435
0z m43 -270 c0 -2 6 -37 14 -77 8 -41 17 -91 21 -111 l6 -37 82 -3 82 -3 3
-33 3 -33 -117 3 -117 3 -27 140 c-16 77 -26 143 -23 148 4 7 73 10 73 3z
m760 -52 c66 -33 97 -100 85 -180 -12 -83 -92 -127 -189 -105 -61 14 -99 41
-120 85 -31 67 -13 164 36 195 50 31 133 33 188 5z"/>
<path d="M969 679 c-44 -44 2 -134 74 -146 53 -8 87 16 87 63 0 68 -33 103
-97 104 -31 0 -49 -6 -64 -21z"/>
<path d="M1670 1070 c-63 -4 -143 -8 -177 -9 -100 -2 -103 -8 -97 -183 6 -180
22 -363 35 -406 7 -21 19 -34 34 -38 28 -7 432 19 441 28 15 16 23 97 24 248
l1 165 -36 90 c-44 108 -50 115 -84 113 -14 -1 -78 -5 -141 -8z m120 -297 c25
-15 50 -50 50 -72 0 -5 -14 -11 -32 -15 -24 -5 -36 -1 -51 15 -27 28 -102 22
-129 -11 -24 -30 -25 -108 0 -126 20 -16 80 -18 116 -4 38 14 33 33 -8 28 -32
-3 -35 -1 -39 27 -3 16 -3 31 -2 33 1 2 35 6 74 9 l72 6 -3 -69 -3 -69 -40
-20 c-54 -27 -168 -28 -207 -2 -58 40 -76 155 -33 220 39 60 172 88 235 50z"/>
</g>
</svg>
